<?xml version="1.0"?>
<svg xmlns="http://www.w3.org/2000/svg" viewBox="0 0 128 128" width="512" height="512"><path d="M119.37,23.414H61.328a5.324,5.324,0,0,1-4.377-2.292L54.37,17.4a7.46,7.46,0,0,0-6.133-3.213H12.565a5,5,0,0,0-5,5v93.829a5,5,0,0,0,5,5H119.37a5,5,0,0,0,5-5v-84.6A5,5,0,0,0,119.37,23.414Z" fill="#e6e7e8"/><path d="M4.63,33H119.3a0,0,0,0,1,0,0v75.687a4,4,0,0,1-4,4H8.63a4,4,0,0,1-4-4V33A0,0,0,0,1,4.63,33Z" fill="#d4fbff"/><path d="M55.03,71.915H68.905a7.876,7.876,0,0,0,7.876-7.876V50.125a7.876,7.876,0,0,0-7.876-7.875H55.03a7.876,7.876,0,0,0-7.876,7.875v7.53H39.625a7.876,7.876,0,0,0-7.876,7.875V79.406a7.876,7.876,0,0,0,7.876,7.876h7.529V79.79A7.876,7.876,0,0,1,55.03,71.915Z" fill="#0089ef"/><path d="M84.31,57.655H76.781v6.384a7.876,7.876,0,0,1-7.876,7.876H55.03a7.876,7.876,0,0,0-7.876,7.875V94.811a7.876,7.876,0,0,0,7.876,7.876H68.905a7.876,7.876,0,0,0,7.876-7.876V87.282H84.31a7.876,7.876,0,0,0,7.876-7.876V65.53A7.876,7.876,0,0,0,84.31,57.655Z" fill="#fa759e"/><circle cx="53.53" cy="50.881" r="2.25" fill="#fff"/><circle cx="70.406" cy="93.633" r="2.25" fill="#fff"/><path d="M115.305,109.687H8.63a4,4,0,0,1-4-4v3a4,4,0,0,0,4,4H115.305a4,4,0,0,0,4-4v-3A4,4,0,0,1,115.305,109.687Z" fill="#fff"/><path d="M52.073,17.466,49.5,13.741a6.393,6.393,0,0,0-5.255-2.753H8.63a4,4,0,0,0-4,4V33H119.305V24.219a4,4,0,0,0-4-4H57.328A6.393,6.393,0,0,1,52.073,17.466Z" fill="#6dc9f7"/><path d="M84.31,56.655H77.781V50.126a8.886,8.886,0,0,0-8.876-8.876H55.03a8.886,8.886,0,0,0-8.876,8.876v6.529H39.625a8.886,8.886,0,0,0-8.876,8.875V79.406a8.886,8.886,0,0,0,8.876,8.875h6.529v6.53a8.886,8.886,0,0,0,8.876,8.876H68.905a8.886,8.886,0,0,0,8.876-8.876v-6.53H84.31a8.885,8.885,0,0,0,8.875-8.875V65.53A8.885,8.885,0,0,0,84.31,56.655ZM39.625,86.281a6.883,6.883,0,0,1-6.876-6.875V65.53a6.883,6.883,0,0,1,6.876-6.875h20.32a1,1,0,0,0,0-2H48.154V50.126A6.884,6.884,0,0,1,55.03,43.25H68.905a6.884,6.884,0,0,1,6.876,6.876V64.039a6.884,6.884,0,0,1-6.876,6.876H55.03a8.886,8.886,0,0,0-8.876,8.875v6.491Zm51.56-6.875a6.883,6.883,0,0,1-6.875,6.875H63.99a1,1,0,0,0,0,2H75.781v6.53a6.884,6.884,0,0,1-6.876,6.876H55.03a6.884,6.884,0,0,1-6.876-6.876V87.282h0V79.79a6.883,6.883,0,0,1,6.876-6.875H68.905a8.886,8.886,0,0,0,8.876-8.876V58.655H84.31a6.883,6.883,0,0,1,6.875,6.875Z" fill="#3a2c60"/><path d="M115.305,19.219H99.718a1,1,0,0,0,0,2h15.587a3,3,0,0,1,3,3V32H5.63V14.988a3,3,0,0,1,3-3H44.241a5.389,5.389,0,0,1,4.431,2.322l2.579,3.725a7.394,7.394,0,0,0,6.077,3.184h21.89a1,1,0,0,0,0-2H57.328A5.39,5.39,0,0,1,52.9,16.9l-2.579-3.726a7.392,7.392,0,0,0-6.076-3.183H8.63a5.006,5.006,0,0,0-5,5v93.7a5.006,5.006,0,0,0,5,5H115.305a5.007,5.007,0,0,0,5-5V24.219A5.006,5.006,0,0,0,115.305,19.219Zm0,92.468H8.63a3,3,0,0,1-3-3V34H118.305v74.687A3,3,0,0,1,115.305,111.687Z" fill="#3a2c60"/><path d="M83.718,21.219h10.5a1,1,0,0,0,0-2h-10.5a1,1,0,0,0,0,2Z" fill="#3a2c60"/><circle cx="40.249" cy="22.416" r="3.257" fill="#fff"/><circle cx="28.417" cy="22.416" r="3.257" fill="#d4fbff"/><circle cx="16.586" cy="22.416" r="3.257" fill="#fa759e"/></svg>
